# AST/ASF file generated using VICON BodyLanguage
# -----------------------------------------------
:version 1.10
:name VICON
:units
  mass 1.0
  length 0.45
  angle deg
:documentation
   .ast/.asf automatically generated from VICON data using
   VICON BodyBuilder and BodyLanguage model FoxedUp or BRILLIANT.MOD
:root
   order TX TY TZ RX RY RZ
   axis XYZ
   position 0 0 0  
   orientation 0 0 0 
:bonedata
  begin
     id 1 
     name lhipjoint
     direction 0.660183 -0.676772 0.325788 
     length 2.75133 
     axis 0 0 0  XYZ
  end
  begin
     id 2 
     name lfemur
     direction 0.34202 -0.939693 0  
     length 7.70317  
     axis 0 0 20  XYZ
    dof rx ry rz
    limits (-160.0 20.0)
           (-70.0 70.0)
           (-60.0 70.0)
  end
  begin
     id 3 
     name ltibia
     direction 0.342105 -0.939662 0   
     length 7.18701   
     axis 0 0 20   XYZ
    dof rx
    limits (-10.0 170.0)
  end
  begin
     id 4 
     name lfoot
     direction 0.14163 -0.389126 0.910232   
     length 2.41719   
     axis -90 7.62852e-016 20   XYZ
    dof rx rz
    limits (-45.0 90.0)
           (-70.0 20.0)
  end
  begin
     id 5 
     name ltoes
     direction 1.53533e-011 -4.21926e-011 1   
     length 1.18611   
     axis -90 7.62852e-016 20   XYZ
    dof rx
    limits (-90.0 20.0)
  end
  begin
     id 6 
     name rhipjoint
     direction -0.6658 -0.67229 0.323631   
     length 2.76968  
     axis 0 0 0  XYZ 
  end
  begin
     id 7 
     name rfemur
     direction -0.34202 -0.939693 0   
     length 7.92547   
     axis 0 0 -20   XYZ
    dof rx ry rz
    limits (-160.0 20.0)
           (-70.0 70.0)
           (-70.0 60.0)
  end
  begin
     id 8 
     name rtibia
     direction -0.342022 -0.939692 0   
     length 7.22641   
     axis 0 0 -20   XYZ
    dof rx
    limits (-10.0 170.0)
 end
 begin
     id 9 
     name rfoot
     direction -0.105675 -0.29034 0.951071   
     length 2.48149  
     axis -90 -7.62852e-016 -20   XYZ
    dof rx rz
    limits (-45.0 90.0)
           (-20.0 70.0)
  end
  begin
     id 10 
     name rtoes
     direction -1.5349e-011 -4.21859e-011 1   
     length 1.23343   
     axis -90 -7.62852e-016 -20   XYZ
    dof rx
    limits (-90.0 20.0)
  end
  begin
     id 11 
     name lowerback
     direction 0.0104173 0.993624 -0.112266   
     length 2.00527   
     axis 0 0 0   XYZ
    dof rx ry rz
    limits (-20.0 45.0)
           (-30.0 30.0)
           (-30.0 30.0)
  end
  begin
     id 12 
     name upperback
     direction 0.00733149 0.999856 -0.0152913   
     length 2.01385   
     axis 0 0 0   XYZ
    dof rx ry rz
    limits (-20.0 45.0)
           (-30.0 30.0)
           (-30.0 30.0)
  end
  begin
     id 13 
     name thorax
     direction 0.0026304 0.999318 0.036841   
     length 2.03734   
     axis 0 0 0   XYZ
    dof rx ry rz
    limits (-20.0 45.0)
           (-30.0 30.0)
           (-30.0 30.0)
  end
  begin
     id 14 
     name lowerneck
     direction 0.0293154 0.998757 0.0403082   
     length 1.65303   
     axis 0 0 0   XYZ
    dof rx ry rz
    limits (-20.0 45.0)
           (-30.0 30.0)
           (-30.0 30.0)
  end
  begin
     id 15 
     name upperneck
     direction -0.0376619 0.998184 -0.0470083   
     length 1.60926   
     axis 0 0 0   XYZ
    dof rx ry rz
    limits (-20.0 45.0)
           (-30.0 30.0)
           (-30.0 30.0)
  end
  begin
     id 16
     name head
     direction -0.0170133 0.999635 -0.0209778  
     length 1.73625  
     axis 0 0 0   XYZ
    dof rx ry rz
    limits (-20.0 45.0)
           (-30.0 30.0)
           (-30.0 30.0)
  end
  begin
     id 17 
     name lclavicle
     direction 0.919857 0.39181 -0.0186333  
     length 3.75313  
     axis 0 0 0   XYZ
    dof ry rz
    limits (-20.0 10.0)
           (0.0 20.0)
  end
  begin
     id 18 
     name lhumerus
     direction 1 -4.48988e-011 1.44029e-027   
     length 5.49313   
     axis 180 -30 -90   XYZ
    dof rx ry rz
    limits (-60.0 90.0)
           (-90.0 90.0)
           (-90.0 90.0)
  end
  begin
     id 19
     name lradius
     direction 1 -4.48924e-011 7.46281e-027   
     length 3.29037   
     axis 180 -30 -90   XYZ
    dof rx
    limits (-10.0 170.0)
  end
  begin
     id 20
     name lwrist
     direction 1 -4.48955e-011 2.19879e-026   
     length 1.64519   
     axis -1.34358e-014 90 90   XYZ
    dof ry
    limits (-180.0 0.0)
 end
  begin
     id 21 
     name lhand
     direction 1 -4.48978e-011 4.39747e-026   
     length 0.729656   
     axis -2.80598e-014 90 90   XYZ
    dof rx rz
    limits (-90.0 90.0)
           (-45.0 45.0)
  end
  begin
     id 22 
     name lfingers
     direction 1 -4.49071e-011 8.79411e-026   
     length 0.588268   
     axis -5.61193e-014 90 90   XYZ
    dof rx
    limits (0.0 90.0)
  end
  begin
     id 23
     name lthumb
     direction 0.707107 -6.34817e-011 0.707107   
     length 0.844638   
     axis -90 45 -9.86923e-015   XYZ
    dof rx rz
    limits (-45.0 45.0)
           (-45.0 45.0)
  end
  begin
     id 24 
     name rclavicle
     direction -0.919898 0.388279 0.0550233   
     length 3.7171  
     axis 0 0 0   XYZ 
    dof ry rz
    limits (-10.0 20.0)
           (-20.0 0.0)
  end
  begin
     id 25 
     name rhumerus
     direction -1 -4.48968e-011 9.98372e-028  
     length 5.23684   
     axis 180 30 90   XYZ
    dof rx ry rz
    limits (-90.0 60.0)
           (-90.0 90.0)
           (-90.0 90.0)
  end
  begin
     id 26 
     name rradius
     direction -1 -4.48956e-011 1.01023e-026   
     length 3.38251   
     axis 180 30 90   XYZ
    dof rx
    limits (-10.0 170.0)
  end
  begin
     id 27 
     name rwrist
     direction -1 -4.4892e-011 2.19886e-026   
     length 1.69126   
     axis -1.34358e-014 -90 -90   XYZ
    dof ry
    limits (-180.0 0.0)
  end
  begin
     id 28
     name rhand
     direction -1 -4.49024e-011 4.39727e-026   
     length 0.691454   
     axis -2.80598e-014 -90 -90   XYZ
    dof rx rz
    limits (-90.0 90.0)
           (-45.0 45.0)
  end
  begin
     id 29
     name rfingers
     direction -1 -4.49097e-011 8.79388e-026   
     length 0.557468   
     axis -5.61193e-014 -90 -90   XYZ
    dof rx
    limits (0.0 90.0)
  end
  begin
     id 30
     name rthumb
     direction -0.707107 -6.34938e-011 0.707107   
     length 0.800416   
     axis -90 -45 9.86923e-015   XYZ
    dof rx rz
    limits (-45.0 45.0)
           (-45.0 45.0)
  end
:hierarchy
  begin
    root lhipjoint rhipjoint lowerback
    lhipjoint lfemur
    lfemur ltibia
    ltibia lfoot
    lfoot ltoes
    rhipjoint rfemur
    rfemur rtibia
    rtibia rfoot
    rfoot rtoes
    lowerback upperback
    upperback thorax
    thorax lowerneck lclavicle rclavicle
    lowerneck upperneck
    upperneck head
    lclavicle lhumerus
    lhumerus lradius
    lradius lwrist
    lwrist lhand lthumb
    lhand lfingers
    rclavicle rhumerus
    rhumerus rradius
    rradius rwrist
    rwrist rhand rthumb
    rhand rfingers
  end

#!OML:ASF H:\BabyWalks\Project 1\Capture day 1\Session 1\baby.ASF
:FULLY-SPECIFIED
:DEGREES
37
root -29.557 17.5763 -20.9896 -94.9754 84.9909 -103.064
lowerback 16.338 -1.76595 3.22394
upperback 7.66187 -1.06697 6.20148
thorax -0.931714 -0.314895 4.91099
lowerneck -5.02688 1.41581 3.85675
upperneck -5.35858 1.61412 -9.63204
head -0.708091 0.863259 -3.80293
rclavicle 5.56597e-015 -9.46215e-014
rhumerus -45.3962 13.6427 -81.9292
rradius 41.9788
rwrist 3.97965
rhand -17.3368 -18.6613
rfingers 7.12502
rthumb 8.91031 -48.4531
lclavicle 5.56597e-015 -9.46215e-014
lhumerus -47.7574 -0.869558 86.4739
lradius 45.522
lwrist -3.22777
lhand -1.94259 7.14896
lfingers 7.12502
lthumb 23.7285 35.7041
rfemur -10.2197 10.5165 26.975
rtibia 28.1221
rfoot -25.4335 -3.77427
rtoes -10.4299
lfemur -27.0412 4.67223 -8.807
ltibia 69.185
lfoot -9.07753 -20.5627
ltoes 2.37706
38
root -29.4139 17.6068 -20.996 -93.9739 85.0846 -102.146
lowerback 16.3188 -1.60968 3.15608
upperback 7.58431 -0.882295 6.12384
thorax -1.01708 -0.227146 4.83424
lowerneck -5.02986 1.37128 3.87924
upperneck -5.33947 1.55589 -9.49453
head -0.706717 0.831445 -3.75939
rclavicle 4.77083e-015 6.36111e-015
rhumerus -45.2242 13.4796 -81.844
rradius 42.5345
rwrist 3.38351
rhand -18.3386 -18.992
rfingers 7.12502
rthumb 7.94354 -48.8227
lclavicle 4.77083e-015 6.36111e-015
lhumerus -48.769 -1.03799 86.6473
lradius 44.9998
lwrist -3.67911
lhand 0.0870182 7.06435
lfingers 7.12502
lthumb 25.6737 35.3531
rfemur -9.2658 10.5587 26.9189
rtibia 27.0155
rfoot -24.9702 -3.5923
rtoes -11.4804
lfemur -27.8174 4.8346 -9.06736
ltibia 68.5689
lfoot -10.3247 -19.9366
ltoes 1.11343
39
root -29.2696 17.6391 -21.0035 -93.2184 85.1524 -101.479
lowerback 16.3063 -1.46226 3.11459
upperback 7.50656 -0.704766 6.03956
thorax -1.10595 -0.142125 4.73665
lowerneck -5.04486 1.31595 3.88413
upperneck -5.33541 1.48348 -9.34731
head -0.709262 0.793084 -3.70937
rclavicle 3.89618e-014 3.02153e-014
rhumerus -45.122 13.3858 -81.8244
rradius 43.1865
rwrist 2.65255
rhand -19.2864 -19.3436
rfingers 7.12502
rthumb 7.02873 -49.2069
lclavicle 3.89618e-014 3.02153e-014
lhumerus -49.7719 -1.25748 86.8046
lradius 44.5711
lwrist -4.21033
lhand 2.08048 7.09444
lfingers 7.12502
lthumb 27.5816 35.0933
rfemur -8.2697 10.5779 26.8761
rtibia 25.8154
rfoot -24.403 -3.37564
rtoes -12.6173
lfemur -28.5493 4.9006 -9.32559
ltibia 67.7165
lfoot -11.504 -19.3023
ltoes -0.0899017
40
root -29.1254 17.6672 -21.0121 -92.7354 85.1868 -101.099
lowerback 16.2869 -1.32274 3.10555
upperback 7.42672 -0.53312 5.95295
thorax -1.19289 -0.0592627 4.61888
lowerneck -5.07363 1.24954 3.87888
upperneck -5.34118 1.39635 -9.19695
head -0.713605 0.747631 -3.65659
rclavicle -1.35174e-014 1.51076e-014
rhumerus -45.0931 13.372 -81.8723
rradius 43.9212
rwrist 1.82879
rhand -20.1999 -19.6849
rfingers 7.12502
rthumb 6.14684 -49.5757
lclavicle -1.35174e-014 1.51076e-014
lhumerus -50.7617 -1.53204 86.9582
lradius 44.2428
lwrist -4.75762
lhand 3.97858 7.21557
lfingers 7.12502
lthumb 29.3953 34.9107
rfemur -7.25959 10.5576 26.8542
rtibia 24.5417
rfoot -23.7409 -3.10751
rtoes -13.7844
lfemur -29.2734 4.86822 -9.56023
ltibia 66.6707
lfoot -12.6068 -18.6798
ltoes -1.18241
41
root -28.9773 17.6997 -21.0207 -91.6009 85.1935 -100.124
lowerback 16.1884 -1.15936 3.10622
upperback 7.34534 -0.336223 5.86449
thorax -1.2408 0.035595 4.48763
lowerneck -5.12018 1.17483 3.86259
upperneck -5.34617 1.29875 -9.04277
head -0.715281 0.696879 -3.60047
rclavicle -9.54166e-015 4.6118e-014
rhumerus -45.1358 13.4363 -81.9794
rradius 44.732
rwrist 0.924507
rhand -21.0443 -20.0083
rfingers 7.12502
rthumb 5.33157 -49.9213
lclavicle -9.54166e-015 4.6118e-014
lhumerus -51.7353 -1.85425 87.1094
lradius 44.0151
lwrist -5.24491
lhand 5.72415 7.40764
lfingers 7.12502
lthumb 31.0604 34.7976
rfemur -6.26737 10.5312 26.8559
rtibia 23.1931
rfoot -23.0047 -2.74854
rtoes -14.8166
lfemur -29.9659 4.8407 -9.75486
ltibia 65.4077
lfoot -13.6678 -18.1079
ltoes -2.27354
42
root -28.8295 17.7318 -21.0313 -91.1276 85.1758 -99.8095
lowerback 16.1151 -1.01766 3.14714
upperback 7.25981 -0.159129 5.77033
thorax -1.30453 0.121714 4.33163
lowerneck -5.18372 1.09515 3.84253
upperneck -5.34563 1.19495 -8.8887
head -0.71248 0.642745 -3.54372
rclavicle 1.11319e-014 1.27222e-014
rhumerus -45.2474 13.579 -82.1449
rradius 45.5831
rwrist 0.0426845
rhand -21.8444 -20.2288
rfingers 7.12502
rthumb 4.55904 -50.1598
lclavicle 1.11319e-014 1.27222e-014
lhumerus -52.6882 -2.21844 87.2614
lradius 43.8857
lwrist -5.57014
lhand 7.26996 7.64519
lfingers 7.12502
lthumb 32.5326 34.7429
rfemur -5.25377 10.4163 26.8627
rtibia 21.7945
rfoot -22.2104 -2.3197
rtoes -15.6452
lfemur -30.6304 4.66315 -9.93377
ltibia 63.963
lfoot -14.6746 -17.5316
ltoes -3.46335
43
root -28.6809 17.7635 -21.0433 -90.9263 85.1414 -99.7775
lowerback 16.0418 -0.883353 3.20924
upperback 7.17141 0.0113483 5.67054
thorax -1.36993 0.204867 4.15899
lowerneck -5.26823 1.01305 3.82432
upperneck -5.33198 1.08829 -8.738
head -0.701797 0.586572 -3.48846
rclavicle 2.06736e-014 2.8625e-014
rhumerus -45.4174 13.7856 -82.3533
rradius 46.4724
rwrist -0.829802
rhand -22.5402 -20.3549
rfingers 7.12502
rthumb 3.88712 -50.2992
lclavicle 2.06736e-014 2.8625e-014
lhumerus -53.6181 -2.61569 87.4108
lradius 43.8527
lwrist -5.6722
lhand 8.59719 7.90308
lfingers 7.12502
lthumb 33.7946 34.7322
rfemur -4.21595 10.2331 26.872
rtibia 20.3153
rfoot -21.3394 -1.82059
rtoes -16.2667
lfemur -31.2531 4.37308 -10.0829
ltibia 62.334
lfoot -15.6241 -16.9495
ltoes -4.71981
44
root -28.5317 17.7943 -21.0567 -91.1282 85.0983 -100.154
lowerback 15.9792 -0.761157 3.28716
upperback 7.07965 0.169052 5.56329
thorax -1.44258 0.281877 3.97202
lowerneck -5.37119 0.929972 3.80618
upperneck -5.30232 0.980913 -8.58505
head -0.682646 0.5294 -3.4324
rclavicle -1.11319e-014 -1.98785e-014
rhumerus -45.6388 14.0423 -82.5929
rradius 47.3864
rwrist -1.67816
rhand -23.1093 -20.358
rfingers 7.12502
rthumb 3.33758 -50.3116
lclavicle -1.11319e-014 -1.98785e-014
lhumerus -54.5192 -3.02989 87.5482
lradius 43.9032
lwrist -5.52982
lhand 9.69899 8.15003
lfingers 7.12502
lthumb 34.8408 34.7431
rfemur -3.16387 9.98214 26.8742
rtibia 18.7886
rfoot -20.3978 -1.26567
rtoes -16.7823
lfemur -31.8259 3.94048 -10.197
ltibia 60.5395
lfoot -16.524 -16.3717
ltoes -5.95732
45
root -28.3823 17.8247 -21.0718 -91.7402 85.0566 -100.936
lowerback 15.9406 -0.65113 3.37271
upperback 6.98499 0.313628 5.44639
thorax -1.52912 0.35239 3.77319
lowerneck -5.49096 0.847889 3.79083
upperneck -5.25666 0.875249 -8.42996
head -0.655172 0.472458 -3.37613
rclavicle -9.54166e-015 2.38542e-015
rhumerus -45.9 14.3294 -82.8505
rradius 48.3024
rwrist -2.46872
rhand -23.5401 -20.2122
rfingers 7.12502
rthumb 2.92149 -50.1719
lclavicle -9.54166e-015 2.38542e-015
lhumerus -55.3926 -3.45911 87.6729
lradius 44.0404
lwrist -5.16807
lhand 10.5921 8.41616
lfingers 7.12502
lthumb 35.6877 34.8088
rfemur -2.0873 9.68332 26.857
rtibia 17.2081
rfoot -19.3943 -0.682353
rtoes -17.1292
lfemur -32.3425 3.36957 -10.289
ltibia 58.5932
lfoot -17.3705 -15.7629
ltoes -7.18088
